<?xml version="1.0" encoding="UTF-8" standalone="no"?><!DOCTYPE svg PUBLIC "-//W3C//DTD SVG 1.1//EN" "http://www.w3.org/Graphics/SVG/1.1/DTD/svg11.dtd"><svg width="100%" height="100%" viewBox="0 0 434 117" version="1.1" xmlns="http://www.w3.org/2000/svg" xmlns:xlink="http://www.w3.org/1999/xlink" xml:space="preserve" xmlns:serif="http://www.serif.com/" style="fill-rule:evenodd;clip-rule:evenodd;stroke-linejoin:round;stroke-miterlimit:2;"><rect id="Prancheta3" x="0" y="0" width="433.333" height="116.667" style="fill:none;"/><clipPath id="_clip1"><rect x="0" y="0" width="433.333" height="116.667"/></clipPath><g clip-path="url(#_clip1)"><path id="sombra-1" serif:id="sombra 1" d="M388.422,-0c6.63,-0 12.989,2.634 17.678,7.322c4.688,4.688 7.322,11.047 7.322,17.678c-0,19.682 -0,46.985 -0,66.667c0,6.63 -2.634,12.989 -7.322,17.678c-4.688,4.688 -11.047,7.322 -17.678,7.322c-70.339,0 -269.389,0 -339.728,0c-6.63,0 -12.989,-2.634 -17.678,-7.322c-4.688,-4.688 -7.322,-11.047 -7.322,-17.678c0,-19.682 0,-46.985 0,-66.667c-0,-6.63 2.634,-12.989 7.322,-17.678c4.688,-4.688 11.047,-7.322 17.678,-7.322c70.339,-0 269.389,-0 339.728,-0Z" style="fill:#9c0000;"/><path id="principal-1" serif:id="principal 1" d="M388.422,0c6.63,-0 12.989,2.634 17.678,7.322c4.688,4.688 7.322,11.047 7.322,17.678c0,16.589 0,38.278 0,54.867c0,6.63 -2.634,12.989 -7.322,17.678c-4.688,4.688 -11.047,7.322 -17.678,7.322c-70.339,-0 -269.389,-0 -339.728,-0c-6.63,0 -12.989,-2.634 -17.678,-7.322c-4.688,-4.688 -7.322,-11.047 -7.322,-17.678c-0,-16.589 -0,-38.278 -0,-54.867c-0,-6.63 2.634,-12.989 7.322,-17.678c4.688,-4.688 11.047,-7.322 17.678,-7.322c70.339,0 269.389,0 339.728,0Z" style="fill:url(#_Linear2);"/><g id="TEXTO-1" serif:id="TEXTO 1" transform="matrix(55.808321,0,0,55.808321,294.798317,68.05966)"></g><text x="138.535px" y="68.06px" style="font-family:'VT323-Regular', 'VT323', monospace;font-size:55.808px;fill:#fff;">BLENDER</text></g><defs><linearGradient id="_Linear2" x1="0" y1="0" x2="1" y2="0" gradientUnits="userSpaceOnUse" gradientTransform="matrix(-0,104.86666,-107.617964,-0,216.666667,0)"><stop offset="0" style="stop-color:#f00;stop-opacity:1"/><stop offset="0.5" style="stop-color:#ff5a32;stop-opacity:1"/><stop offset="1" style="stop-color:#ac0000;stop-opacity:1"/></linearGradient></defs></svg>